<svg width="25" height="25" viewBox="0 0 25 25" fill="none" xmlns="http://www.w3.org/2000/svg">
<path d="M15.7216 12.8554C15.9682 13.1793 16.2892 13.439 16.6576 13.6123C17.0258 13.7857 17.4305 13.8677 17.8372 13.8512C19.1331 13.8512 20.1852 13.0627 20.1852 12.0897C20.1852 11.1168 19.1331 10.3293 17.8372 10.3293C16.5414 10.3293 15.4883 9.53976 15.4883 8.56685C15.4883 7.59393 16.5404 6.80539 17.8372 6.80539C18.244 6.78903 18.6487 6.87101 19.0169 7.04438C19.3853 7.21773 19.7063 7.47736 19.9529 7.80122" stroke="#ACA9A9" stroke-width="1.10714" stroke-linecap="round" stroke-linejoin="round"/>
<path d="M17.8376 13.8542V15.0282" stroke="#ACA9A9" stroke-width="1.10714" stroke-linecap="round" stroke-linejoin="round"/>
<path d="M17.8376 5.63477V6.80872" stroke="#ACA9A9" stroke-width="1.10714" stroke-linecap="round" stroke-linejoin="round"/>
<path d="M21.2022 2.34375H3.798C2.27576 2.34375 1.04175 3.57776 1.04175 5.1V16.2542C1.04175 17.7764 2.27576 19.0104 3.798 19.0104H21.2022C22.7244 19.0104 23.9584 17.7764 23.9584 16.2542V5.1C23.9584 3.57776 22.7244 2.34375 21.2022 2.34375Z" stroke="#ACA9A9" stroke-width="1.10714" stroke-linecap="round" stroke-linejoin="round"/>
<path d="M12.5 19.0104V22.6562" stroke="#ACA9A9" stroke-width="0.885714" stroke-linecap="round" stroke-linejoin="round"/>
<path d="M7.29175 22.6562H17.7084" stroke="#ACA9A9" stroke-width="1.10714" stroke-linecap="round" stroke-linejoin="round"/>
<path d="M4.81445 6.96619H11.0769" stroke="#ACA9A9" stroke-width="1.10714" stroke-linecap="round" stroke-linejoin="round"/>
<path d="M4.81445 10.9537H11.0769" stroke="#ACA9A9" stroke-width="1.10714" stroke-linecap="round" stroke-linejoin="round"/>
<path d="M4.81445 14.9381H7.9457" stroke="#ACA9A9" stroke-width="1.10714" stroke-linecap="round" stroke-linejoin="round"/>
</svg>
