<svg width="36" height="36" viewBox="0 0 36 36" fill="none" xmlns="http://www.w3.org/2000/svg">
<path d="M13.9219 18H19.0195M13.9219 22.0781H19.0195M13.9219 26.1562H19.0195M23.0977 27.1758H26.1562C26.5579 27.1758 26.9556 27.0967 27.3267 26.943C27.6978 26.7893 28.035 26.564 28.319 26.2799C28.603 25.9959 28.8283 25.6587 28.982 25.2877C29.1357 24.9166 29.2148 24.5188 29.2148 24.1172V9.99056C29.2148 8.44767 28.0662 7.13859 26.5287 7.01081C26.0203 6.96865 25.5114 6.9324 25.0021 6.90206M25.0021 6.90206C25.0923 7.19444 25.1368 7.49871 25.1367 7.80469C25.1367 8.07508 25.0293 8.33441 24.8381 8.52561C24.6469 8.7168 24.3876 8.82422 24.1172 8.82422H18C17.4372 8.82422 16.9805 8.36747 16.9805 7.80469C16.9805 7.49067 17.028 7.18753 17.1164 6.90206M25.0021 6.90206C24.6174 5.65416 23.4538 4.74609 22.0781 4.74609H20.0391C19.3855 4.74625 18.7492 4.95563 18.2233 5.34359C17.6974 5.73155 17.3095 6.2777 17.1164 6.90206M17.1164 6.90206C16.6053 6.93333 16.0969 6.97003 15.5885 7.01081C14.051 7.13859 12.9023 8.44767 12.9023 9.99056V12.9023M12.9023 12.9023H8.31445C7.47028 12.9023 6.78516 13.5875 6.78516 14.4316V29.7246C6.78516 30.5688 7.47028 31.2539 8.31445 31.2539H21.5684C22.4125 31.2539 23.0977 30.5688 23.0977 29.7246V14.4316C23.0977 13.5875 22.4125 12.9023 21.5684 12.9023H12.9023ZM10.8633 18H10.8742V18.0109H10.8633V18ZM10.8633 22.0781H10.8742V22.089H10.8633V22.0781ZM10.8633 26.1562H10.8742V26.1671H10.8633V26.1562Z" stroke="#ACA9A9" stroke-width="1.1" stroke-linecap="round" stroke-linejoin="round"/>
</svg>
