<svg width="26" height="26" viewBox="0 0 26 26" fill="none" xmlns="http://www.w3.org/2000/svg">
<path d="M6.87158 9.3244C9.04562 7.39476 10.3932 6.74327 12.9999 6.26025C15.6067 6.74327 16.9543 7.39476 19.1284 9.3244L12.9999 12.3886L6.87158 9.3244Z" stroke="#ACA9A9" stroke-width="1.2" stroke-linecap="round" stroke-linejoin="round"/>
<path d="M6.87163 9.32453C6.11601 11.3988 6.10971 13.8716 6.70758 15.9555C6.80592 16.2982 7.01204 16.5987 7.28577 16.8272C9.1807 18.409 10.4781 18.9904 12.5942 19.4528C12.8612 19.5112 13.1389 19.5112 13.406 19.4528C15.522 18.9904 16.8195 18.409 18.7144 16.8272C18.988 16.5987 19.1942 16.2982 19.2926 15.9555C19.8904 13.8715 19.8841 11.3987 19.1284 9.32434L13 12.3887L6.87163 9.32453Z" stroke="#ACA9A9" stroke-width="1.2" stroke-linecap="round" stroke-linejoin="round"/>
<path d="M13.0001 12.374V19.5382" stroke="#ACA9A9" stroke-width="1.2" stroke-linecap="round" stroke-linejoin="round"/>
<path d="M1 13C1 6.37258 6.37262 1 13.0001 1C17.5627 1 21.5305 3.54634 23.5602 7.29545C23.7053 5.18067 23.6627 3.97051 23.3668 1.77484" stroke="#ACA9A9" stroke-width="1.2" stroke-linecap="round" stroke-linejoin="round"/>
<path d="M25 13C25 19.6275 19.6274 25 13 25C8.4599 25 4.5087 22.4787 2.47012 18.76C2.32499 20.8749 2.36752 22.0849 2.66354 24.2806" stroke="#ACA9A9" stroke-width="1.2" stroke-linecap="round" stroke-linejoin="round"/>
</svg>
