<svg width="24" height="24" viewBox="0 0 24 24" fill="none" xmlns="http://www.w3.org/2000/svg">
<g clip-path="url(#clip0_58_613)">
<path d="M12.005 17.1499H6.755C6.55609 17.1499 6.36533 17.2289 6.22467 17.3696C6.08402 17.5102 6.005 17.701 6.005 17.8999V22.3999C6.005 22.5988 6.08402 22.7896 6.22467 22.9302C6.36533 23.0709 6.55609 23.1499 6.755 23.1499H11.255C11.4539 23.1499 11.6447 23.0709 11.7853 22.9302C11.926 22.7896 12.005 22.5988 12.005 22.3999V17.1499Z" stroke="#ACA9A9" stroke-width="1.2" stroke-linecap="round" stroke-linejoin="round"/>
<path d="M17.255 17.1499H12.005V22.3999C12.005 22.5988 12.084 22.7896 12.2247 22.9302C12.3653 23.0709 12.5561 23.1499 12.755 23.1499H17.255C17.4539 23.1499 17.6447 23.0709 17.7853 22.9302C17.926 22.7896 18.005 22.5988 18.005 22.3999V17.8999C18.005 17.701 17.926 17.5102 17.7853 17.3696C17.6447 17.2289 17.4539 17.1499 17.255 17.1499Z" stroke="#ACA9A9" stroke-width="1.2" stroke-linecap="round" stroke-linejoin="round"/>
<path d="M14.255 11.1499H9.755C9.55609 11.1499 9.36534 11.2289 9.22468 11.3696C9.08403 11.5102 9.005 11.701 9.005 11.8999V17.1499H15.005V11.8999C15.005 11.701 14.926 11.5102 14.7853 11.3696C14.6447 11.2289 14.4539 11.1499 14.255 11.1499Z" stroke="#ACA9A9" stroke-width="1.2" stroke-linecap="round" stroke-linejoin="round"/>
<path d="M23.255 23.1501V7.55012C23.2551 7.27819 23.1813 7.01134 23.0414 6.77813C22.9016 6.54492 22.7009 6.35411 22.461 6.22612L12.711 1.02612C12.4939 0.910387 12.2516 0.849854 12.0055 0.849854C11.7594 0.849854 11.5172 0.910387 11.3 1.02612L1.55 6.22612C1.30989 6.35398 1.10906 6.54473 0.969023 6.77795C0.828984 7.01117 0.755005 7.27808 0.755005 7.55012V23.1501" stroke="#ACA9A9" stroke-width="1.2" stroke-linecap="round" stroke-linejoin="round"/>
</g>
<defs>
<clipPath id="clip0_58_613">
<rect width="24" height="24" fill="white"/>
</clipPath>
</defs>
</svg>
